<svg width="33" height="32" viewBox="0 0 33 32" fill="currentColor" xmlns="http://www.w3.org/2000/svg">
  <path d="M18.7021 13.9855H17.3716V19.5073H18.7021V13.9855Z" />
  <path d="M15.9624 13.9855H14.6318V19.5073H15.9624V13.9855Z" />
  <path
    d="M22.978 11.1671C22.9754 11.0306 22.9295 10.8985 22.8469 10.7897C22.7642 10.681 22.6492 10.6014 22.5184 10.5623C22.4596 10.5378 22.3974 10.5225 22.3339 10.517H18.7868C18.6525 10.0779 18.3808 9.69355 18.0117 9.42047C17.6426 9.14739 17.1956 9 16.7365 9C16.2774 9 15.8304 9.14739 15.4613 9.42047C15.0922 9.69355 14.8205 10.0779 14.6862 10.517H11.1391C11.0807 10.5181 11.0227 10.5273 10.9667 10.5442H10.9516C10.8132 10.587 10.6933 10.6755 10.6116 10.7951C10.5299 10.9148 10.4912 11.0587 10.5017 11.2032C10.5122 11.3477 10.5714 11.4844 10.6696 11.591C10.7678 11.6976 10.8992 11.7677 11.0423 11.7901L11.753 21.5334C11.7638 21.9127 11.9169 22.2741 12.1819 22.5458C12.4469 22.8175 12.8044 22.9797 13.1833 23H20.2867C20.6662 22.9804 21.0244 22.8186 21.29 22.5468C21.5556 22.2751 21.7092 21.9132 21.72 21.5334L22.4277 11.7991C22.5802 11.778 22.72 11.7023 22.8212 11.5862C22.9223 11.47 22.978 11.3212 22.978 11.1671ZM16.7365 10.2146C16.8661 10.2146 16.9943 10.2415 17.1129 10.2935C17.2316 10.3456 17.3382 10.4216 17.426 10.517H16.047C16.1346 10.4214 16.2411 10.3451 16.3599 10.293C16.4786 10.2409 16.6069 10.2142 16.7365 10.2146ZM20.2867 21.7904H13.1833C13.1017 21.7904 12.9747 21.6573 12.9595 21.4457L12.258 11.8112H21.215L20.5135 21.4457C20.4984 21.6573 20.3714 21.7904 20.2867 21.7904Z" />
</svg>